<svg id="grafo" xmlns="http://www.w3.org/2000/svg" width="1400" height="350">
<g><rect x="0" y="0" width="50" height="50" fill="Blue" stroke="pink"/><circle cx="25" cy="25" r="6" fill="Blue" stroke="black" stroke-width="3" /> </g>
<g><rect x="50" y="0" width="50" height="50" fill="Green" stroke="pink"/><circle cx="75" cy="25" r="6" fill="Blue" stroke="black" stroke-width="3" /> </g>
<g><rect x="100" y="0" width="50" height="50" fill="Green" stroke="pink"/><circle cx="125" cy="25" r="6" fill="Blue" stroke="black" stroke-width="3" /> </g>
<g><rect x="150" y="0" width="50" height="50" fill="Green" stroke="pink"/><circle cx="175" cy="25" r="6" fill="Blue" stroke="black" stroke-width="3" /> </g>
<g><rect x="200" y="0" width="50" height="50" fill="Green" stroke="pink"/><circle cx="225" cy="25" r="6" fill="Yellow" stroke="black" stroke-width="3" /> </g>
<g><rect x="250" y="0" width="50" height="50" fill="Green" stroke="pink"/><circle cx="275" cy="25" r="6" fill="Yellow" stroke="black" stroke-width="3" /> </g>
<g><rect x="300" y="0" width="50" height="50" fill="Green" stroke="pink"/><circle cx="325" cy="25" r="6" fill="Yellow" stroke="black" stroke-width="3" /> </g>
<g><rect x="350" y="0" width="50" height="50" fill="Green" stroke="pink"/><circle cx="375" cy="25" r="6" fill="Yellow" stroke="black" stroke-width="3" /> </g>
<g><rect x="400" y="0" width="50" height="50" fill="Green" stroke="pink"/><circle cx="425" cy="25" r="6" fill="Yellow" stroke="black" stroke-width="3" /> </g>
<g><rect x="450" y="0" width="50" height="50" fill="Green" stroke="pink"/><circle cx="475" cy="25" r="6" fill="Yellow" stroke="black" stroke-width="3" /> </g>
<g><rect x="500" y="0" width="50" height="50" fill="Green" stroke="pink"/><circle cx="525" cy="25" r="6" fill="Yellow" stroke="black" stroke-width="3" /> </g>
<g><rect x="550" y="0" width="50" height="50" fill="Green" stroke="pink"/><circle cx="575" cy="25" r="6" fill="Yellow" stroke="black" stroke-width="3" /> </g>
<g><rect x="600" y="0" width="50" height="50" fill="Brown" stroke="pink"/><circle cx="625" cy="25" r="6" fill="Yellow" stroke="black" stroke-width="3" /> </g>
<rect x="650" y="0" width="50" height="50" fill="Brown" stroke="pink"/>
<rect x="700" y="0" width="50" height="50" fill="Brown" stroke="pink"/>
<rect x="750" y="0" width="50" height="50" fill="Brown" stroke="pink"/>
<rect x="800" y="0" width="50" height="50" fill="Green" stroke="pink"/>
<rect x="850" y="0" width="50" height="50" fill="Green" stroke="pink"/>
<rect x="900" y="0" width="50" height="50" fill="Green" stroke="pink"/>
<rect x="950" y="0" width="50" height="50" fill="Green" stroke="pink"/>
<rect x="1000" y="0" width="50" height="50" fill="Green" stroke="pink"/>
<rect x="1050" y="0" width="50" height="50" fill="Green" stroke="pink"/>
<rect x="1100" y="0" width="50" height="50" fill="Green" stroke="pink"/>
<rect x="1150" y="0" width="50" height="50" fill="Green" stroke="pink"/>
<rect x="1200" y="0" width="50" height="50" fill="Green" stroke="pink"/>
<rect x="1250" y="0" width="50" height="50" fill="Green" stroke="pink"/>
<rect x="1300" y="0" width="50" height="50" fill="Green" stroke="pink"/>
<rect x="1350" y="0" width="50" height="50" fill="Green" stroke="pink"/>
<g><rect x="0" y="50" width="50" height="50" fill="Green" stroke="pink"/><circle cx="25" cy="75" r="6" fill="Yellow" stroke="black" stroke-width="3" /> </g>
<g><rect x="50" y="50" width="50" height="50" fill="Green" stroke="pink"/><circle cx="75" cy="75" r="6" fill="Yellow" stroke="black" stroke-width="3" /> </g>
<g><rect x="100" y="50" width="50" height="50" fill="Green" stroke="pink"/><circle cx="125" cy="75" r="6" fill="Yellow" stroke="black" stroke-width="3" /> </g>
<g><rect x="150" y="50" width="50" height="50" fill="Green" stroke="pink"/><circle cx="175" cy="75" r="6" fill="Blue" stroke="black" stroke-width="3" /> </g>
<g><rect x="200" y="50" width="50" height="50" fill="Green" stroke="pink"/><circle cx="225" cy="75" r="6" fill="Yellow" stroke="black" stroke-width="3" /> </g>
<g><rect x="250" y="50" width="50" height="50" fill="Green" stroke="pink"/><circle cx="275" cy="75" r="6" fill="Yellow" stroke="black" stroke-width="3" /> </g>
<g><rect x="300" y="50" width="50" height="50" fill="Green" stroke="pink"/><circle cx="325" cy="75" r="6" fill="Yellow" stroke="black" stroke-width="3" /> </g>
<g><rect x="350" y="50" width="50" height="50" fill="Green" stroke="pink"/><circle cx="375" cy="75" r="6" fill="Yellow" stroke="black" stroke-width="3" /> </g>
<g><rect x="400" y="50" width="50" height="50" fill="Green" stroke="pink"/><circle cx="425" cy="75" r="6" fill="Yellow" stroke="black" stroke-width="3" /> </g>
<g><rect x="450" y="50" width="50" height="50" fill="Green" stroke="pink"/><circle cx="475" cy="75" r="6" fill="Yellow" stroke="black" stroke-width="3" /> </g>
<g><rect x="500" y="50" width="50" height="50" fill="Green" stroke="pink"/><circle cx="525" cy="75" r="6" fill="Yellow" stroke="black" stroke-width="3" /> </g>
<g><rect x="550" y="50" width="50" height="50" fill="Green" stroke="pink"/><circle cx="575" cy="75" r="6" fill="Yellow" stroke="black" stroke-width="3" /> </g>
<g><rect x="600" y="50" width="50" height="50" fill="Brown" stroke="pink"/><circle cx="625" cy="75" r="6" fill="Yellow" stroke="black" stroke-width="3" /> </g>
<rect x="650" y="50" width="50" height="50" fill="Brown" stroke="pink"/>
<rect x="700" y="50" width="50" height="50" fill="Brown" stroke="pink"/>
<rect x="750" y="50" width="50" height="50" fill="Brown" stroke="pink"/>
<rect x="800" y="50" width="50" height="50" fill="Green" stroke="pink"/>
<rect x="850" y="50" width="50" height="50" fill="Green" stroke="pink"/>
<rect x="900" y="50" width="50" height="50" fill="Green" stroke="pink"/>
<rect x="950" y="50" width="50" height="50" fill="Green" stroke="pink"/>
<rect x="1000" y="50" width="50" height="50" fill="Green" stroke="pink"/>
<rect x="1050" y="50" width="50" height="50" fill="Green" stroke="pink"/>
<rect x="1100" y="50" width="50" height="50" fill="Green" stroke="pink"/>
<rect x="1150" y="50" width="50" height="50" fill="Green" stroke="pink"/>
<rect x="1200" y="50" width="50" height="50" fill="Green" stroke="pink"/>
<rect x="1250" y="50" width="50" height="50" fill="Green" stroke="pink"/>
<rect x="1300" y="50" width="50" height="50" fill="Green" stroke="pink"/>
<rect x="1350" y="50" width="50" height="50" fill="Green" stroke="pink"/>
<g><rect x="0" y="100" width="50" height="50" fill="Green" stroke="pink"/><circle cx="25" cy="125" r="6" fill="Yellow" stroke="black" stroke-width="3" /> </g>
<g><rect x="50" y="100" width="50" height="50" fill="Green" stroke="pink"/><circle cx="75" cy="125" r="6" fill="Yellow" stroke="black" stroke-width="3" /> </g>
<g><rect x="100" y="100" width="50" height="50" fill="Green" stroke="pink"/><circle cx="125" cy="125" r="6" fill="Yellow" stroke="black" stroke-width="3" /> </g>
<g><rect x="150" y="100" width="50" height="50" fill="Green" stroke="pink"/><circle cx="175" cy="125" r="6" fill="Blue" stroke="black" stroke-width="3" /> </g>
<g><rect x="200" y="100" width="50" height="50" fill="Green" stroke="pink"/><circle cx="225" cy="125" r="6" fill="Blue" stroke="black" stroke-width="3" /> </g>
<g><rect x="250" y="100" width="50" height="50" fill="Green" stroke="pink"/><circle cx="275" cy="125" r="6" fill="Blue" stroke="black" stroke-width="3" /> </g>
<g><rect x="300" y="100" width="50" height="50" fill="Green" stroke="pink"/><circle cx="325" cy="125" r="6" fill="Blue" stroke="black" stroke-width="3" /> </g>
<g><rect x="350" y="100" width="50" height="50" fill="Green" stroke="pink"/><circle cx="375" cy="125" r="6" fill="Yellow" stroke="black" stroke-width="3" /> </g>
<g><rect x="400" y="100" width="50" height="50" fill="Green" stroke="pink"/><circle cx="425" cy="125" r="6" fill="Yellow" stroke="black" stroke-width="3" /> </g>
<g><rect x="450" y="100" width="50" height="50" fill="Green" stroke="pink"/><circle cx="475" cy="125" r="6" fill="Yellow" stroke="black" stroke-width="3" /> </g>
<g><rect x="500" y="100" width="50" height="50" fill="Green" stroke="pink"/><circle cx="525" cy="125" r="6" fill="Yellow" stroke="black" stroke-width="3" /> </g>
<g><rect x="550" y="100" width="50" height="50" fill="Green" stroke="pink"/><circle cx="575" cy="125" r="6" fill="Yellow" stroke="black" stroke-width="3" /> </g>
<g><rect x="600" y="100" width="50" height="50" fill="Brown" stroke="pink"/><circle cx="625" cy="125" r="6" fill="Yellow" stroke="black" stroke-width="3" /> </g>
<g><rect x="650" y="100" width="50" height="50" fill="Brown" stroke="pink"/><circle cx="675" cy="125" r="6" fill="Yellow" stroke="black" stroke-width="3" /> </g>
<g><rect x="700" y="100" width="50" height="50" fill="Brown" stroke="pink"/><circle cx="725" cy="125" r="6" fill="Yellow" stroke="black" stroke-width="3" /> </g>
<g><rect x="750" y="100" width="50" height="50" fill="Brown" stroke="pink"/><circle cx="775" cy="125" r="6" fill="Yellow" stroke="black" stroke-width="3" /> </g>
<g><rect x="800" y="100" width="50" height="50" fill="Green" stroke="pink"/><circle cx="825" cy="125" r="6" fill="Yellow" stroke="black" stroke-width="3" /> </g>
<g><rect x="850" y="100" width="50" height="50" fill="Green" stroke="pink"/><circle cx="875" cy="125" r="6" fill="Yellow" stroke="black" stroke-width="3" /> </g>
<g><rect x="900" y="100" width="50" height="50" fill="Green" stroke="pink"/><circle cx="925" cy="125" r="6" fill="Yellow" stroke="black" stroke-width="3" /> </g>
<g><rect x="950" y="100" width="50" height="50" fill="Green" stroke="pink"/><circle cx="975" cy="125" r="6" fill="Yellow" stroke="black" stroke-width="3" /> </g>
<g><rect x="1000" y="100" width="50" height="50" fill="Green" stroke="pink"/><circle cx="1025" cy="125" r="6" fill="Yellow" stroke="black" stroke-width="3" /> </g>
<g><rect x="1050" y="100" width="50" height="50" fill="Green" stroke="pink"/><circle cx="1075" cy="125" r="6" fill="Yellow" stroke="black" stroke-width="3" /> </g>
<g><rect x="1100" y="100" width="50" height="50" fill="Green" stroke="pink"/><circle cx="1125" cy="125" r="6" fill="Yellow" stroke="black" stroke-width="3" /> </g>
<g><rect x="1150" y="100" width="50" height="50" fill="Green" stroke="pink"/><circle cx="1175" cy="125" r="6" fill="Yellow" stroke="black" stroke-width="3" /> </g>
<rect x="1200" y="100" width="50" height="50" fill="Green" stroke="pink"/>
<rect x="1250" y="100" width="50" height="50" fill="Green" stroke="pink"/>
<rect x="1300" y="100" width="50" height="50" fill="Green" stroke="pink"/>
<rect x="1350" y="100" width="50" height="50" fill="Green" stroke="pink"/>
<g><rect x="0" y="150" width="50" height="50" fill="Green" stroke="pink"/><circle cx="25" cy="175" r="6" fill="Yellow" stroke="black" stroke-width="3" /> </g>
<g><rect x="50" y="150" width="50" height="50" fill="Green" stroke="pink"/><circle cx="75" cy="175" r="6" fill="Yellow" stroke="black" stroke-width="3" /> </g>
<g><rect x="100" y="150" width="50" height="50" fill="Green" stroke="pink"/><circle cx="125" cy="175" r="6" fill="Yellow" stroke="black" stroke-width="3" /> </g>
<g><rect x="150" y="150" width="50" height="50" fill="Green" stroke="pink"/><circle cx="175" cy="175" r="6" fill="Yellow" stroke="black" stroke-width="3" /> </g>
<g><rect x="200" y="150" width="50" height="50" fill="Green" stroke="pink"/><circle cx="225" cy="175" r="6" fill="Yellow" stroke="black" stroke-width="3" /> </g>
<g><rect x="250" y="150" width="50" height="50" fill="Green" stroke="pink"/><circle cx="275" cy="175" r="6" fill="Yellow" stroke="black" stroke-width="3" /> </g>
<g><rect x="300" y="150" width="50" height="50" fill="Green" stroke="pink"/><circle cx="325" cy="175" r="6" fill="Blue" stroke="black" stroke-width="3" /> </g>
<g><rect x="350" y="150" width="50" height="50" fill="Green" stroke="pink"/><circle cx="375" cy="175" r="6" fill="Blue" stroke="black" stroke-width="3" /> </g>
<g><rect x="400" y="150" width="50" height="50" fill="Green" stroke="pink"/><circle cx="425" cy="175" r="6" fill="Blue" stroke="black" stroke-width="3" /> </g>
<g><rect x="450" y="150" width="50" height="50" fill="Green" stroke="pink"/><circle cx="475" cy="175" r="6" fill="Blue" stroke="black" stroke-width="3" /> </g>
<g><rect x="500" y="150" width="50" height="50" fill="Green" stroke="pink"/><circle cx="525" cy="175" r="6" fill="Blue" stroke="black" stroke-width="3" /> </g>
<g><rect x="550" y="150" width="50" height="50" fill="Green" stroke="pink"/><circle cx="575" cy="175" r="6" fill="Blue" stroke="black" stroke-width="3" /> </g>
<g><rect x="600" y="150" width="50" height="50" fill="Green" stroke="pink"/><circle cx="625" cy="175" r="6" fill="Blue" stroke="black" stroke-width="3" /> </g>
<g><rect x="650" y="150" width="50" height="50" fill="Green" stroke="pink"/><circle cx="675" cy="175" r="6" fill="Blue" stroke="black" stroke-width="3" /> </g>
<g><rect x="700" y="150" width="50" height="50" fill="Green" stroke="pink"/><circle cx="725" cy="175" r="6" fill="Blue" stroke="black" stroke-width="3" /> </g>
<g><rect x="750" y="150" width="50" height="50" fill="Green" stroke="pink"/><circle cx="775" cy="175" r="6" fill="Blue" stroke="black" stroke-width="3" /> </g>
<g><rect x="800" y="150" width="50" height="50" fill="Green" stroke="pink"/><circle cx="825" cy="175" r="6" fill="Blue" stroke="black" stroke-width="3" /> </g>
<g><rect x="850" y="150" width="50" height="50" fill="Green" stroke="pink"/><circle cx="875" cy="175" r="6" fill="Blue" stroke="black" stroke-width="3" /> </g>
<g><rect x="900" y="150" width="50" height="50" fill="Green" stroke="pink"/><circle cx="925" cy="175" r="6" fill="Blue" stroke="black" stroke-width="3" /> </g>
<g><rect x="950" y="150" width="50" height="50" fill="Green" stroke="pink"/><circle cx="975" cy="175" r="6" fill="Blue" stroke="black" stroke-width="3" /> </g>
<g><rect x="1000" y="150" width="50" height="50" fill="Green" stroke="pink"/><circle cx="1025" cy="175" r="6" fill="Blue" stroke="black" stroke-width="3" /> </g>
<g><rect x="1050" y="150" width="50" height="50" fill="Green" stroke="pink"/><circle cx="1075" cy="175" r="6" fill="Blue" stroke="black" stroke-width="3" /> </g>
<g><rect x="1100" y="150" width="50" height="50" fill="Green" stroke="pink"/><circle cx="1125" cy="175" r="6" fill="Blue" stroke="black" stroke-width="3" /> </g>
<g><rect x="1150" y="150" width="50" height="50" fill="Green" stroke="pink"/><circle cx="1175" cy="175" r="6" fill="Blue" stroke="black" stroke-width="3" /> </g>
<g><rect x="1200" y="150" width="50" height="50" fill="Green" stroke="pink"/><circle cx="1225" cy="175" r="6" fill="Yellow" stroke="black" stroke-width="3" /> </g>
<g><rect x="1250" y="150" width="50" height="50" fill="Green" stroke="pink"/><circle cx="1275" cy="175" r="6" fill="Yellow" stroke="black" stroke-width="3" /> </g>
<g><rect x="1300" y="150" width="50" height="50" fill="Green" stroke="pink"/><circle cx="1325" cy="175" r="6" fill="Yellow" stroke="black" stroke-width="3" /> </g>
<g><rect x="1350" y="150" width="50" height="50" fill="Green" stroke="pink"/><circle cx="1375" cy="175" r="6" fill="Yellow" stroke="black" stroke-width="3" /> </g>
<g><rect x="0" y="200" width="50" height="50" fill="Green" stroke="pink"/><circle cx="25" cy="225" r="6" fill="Yellow" stroke="black" stroke-width="3" /> </g>
<g><rect x="50" y="200" width="50" height="50" fill="Green" stroke="pink"/><circle cx="75" cy="225" r="6" fill="Yellow" stroke="black" stroke-width="3" /> </g>
<g><rect x="100" y="200" width="50" height="50" fill="Green" stroke="pink"/><circle cx="125" cy="225" r="6" fill="Yellow" stroke="black" stroke-width="3" /> </g>
<g><rect x="150" y="200" width="50" height="50" fill="Green" stroke="pink"/><circle cx="175" cy="225" r="6" fill="Yellow" stroke="black" stroke-width="3" /> </g>
<g><rect x="200" y="200" width="50" height="50" fill="Green" stroke="pink"/><circle cx="225" cy="225" r="6" fill="Yellow" stroke="black" stroke-width="3" /> </g>
<g><rect x="250" y="200" width="50" height="50" fill="Green" stroke="pink"/><circle cx="275" cy="225" r="6" fill="Yellow" stroke="black" stroke-width="3" /> </g>
<g><rect x="300" y="200" width="50" height="50" fill="Green" stroke="pink"/><circle cx="325" cy="225" r="6" fill="Yellow" stroke="black" stroke-width="3" /> </g>
<g><rect x="350" y="200" width="50" height="50" fill="Green" stroke="pink"/><circle cx="375" cy="225" r="6" fill="Yellow" stroke="black" stroke-width="3" /> </g>
<g><rect x="400" y="200" width="50" height="50" fill="Green" stroke="pink"/><circle cx="425" cy="225" r="6" fill="Yellow" stroke="black" stroke-width="3" /> </g>
<g><rect x="450" y="200" width="50" height="50" fill="Green" stroke="pink"/><circle cx="475" cy="225" r="6" fill="Yellow" stroke="black" stroke-width="3" /> </g>
<g><rect x="500" y="200" width="50" height="50" fill="Green" stroke="pink"/><circle cx="525" cy="225" r="6" fill="Yellow" stroke="black" stroke-width="3" /> </g>
<g><rect x="550" y="200" width="50" height="50" fill="Green" stroke="pink"/><circle cx="575" cy="225" r="6" fill="Yellow" stroke="black" stroke-width="3" /> </g>
<g><rect x="600" y="200" width="50" height="50" fill="Brown" stroke="pink"/><circle cx="625" cy="225" r="6" fill="Yellow" stroke="black" stroke-width="3" /> </g>
<g><rect x="650" y="200" width="50" height="50" fill="Brown" stroke="pink"/><circle cx="675" cy="225" r="6" fill="Yellow" stroke="black" stroke-width="3" /> </g>
<g><rect x="700" y="200" width="50" height="50" fill="Brown" stroke="pink"/><circle cx="725" cy="225" r="6" fill="Yellow" stroke="black" stroke-width="3" /> </g>
<g><rect x="750" y="200" width="50" height="50" fill="Brown" stroke="pink"/><circle cx="775" cy="225" r="6" fill="Yellow" stroke="black" stroke-width="3" /> </g>
<g><rect x="800" y="200" width="50" height="50" fill="Green" stroke="pink"/><circle cx="825" cy="225" r="6" fill="Yellow" stroke="black" stroke-width="3" /> </g>
<g><rect x="850" y="200" width="50" height="50" fill="Green" stroke="pink"/><circle cx="875" cy="225" r="6" fill="Yellow" stroke="black" stroke-width="3" /> </g>
<g><rect x="900" y="200" width="50" height="50" fill="Green" stroke="pink"/><circle cx="925" cy="225" r="6" fill="Yellow" stroke="black" stroke-width="3" /> </g>
<g><rect x="950" y="200" width="50" height="50" fill="Green" stroke="pink"/><circle cx="975" cy="225" r="6" fill="Yellow" stroke="black" stroke-width="3" /> </g>
<g><rect x="1000" y="200" width="50" height="50" fill="Green" stroke="pink"/><circle cx="1025" cy="225" r="6" fill="Yellow" stroke="black" stroke-width="3" /> </g>
<g><rect x="1050" y="200" width="50" height="50" fill="Green" stroke="pink"/><circle cx="1075" cy="225" r="6" fill="Yellow" stroke="black" stroke-width="3" /> </g>
<g><rect x="1100" y="200" width="50" height="50" fill="Green" stroke="pink"/><circle cx="1125" cy="225" r="6" fill="Yellow" stroke="black" stroke-width="3" /> </g>
<g><rect x="1150" y="200" width="50" height="50" fill="Green" stroke="pink"/><circle cx="1175" cy="225" r="6" fill="Blue" stroke="black" stroke-width="3" /> </g>
<g><rect x="1200" y="200" width="50" height="50" fill="Green" stroke="pink"/><circle cx="1225" cy="225" r="6" fill="Blue" stroke="black" stroke-width="3" /> </g>
<g><rect x="1250" y="200" width="50" height="50" fill="Green" stroke="pink"/><circle cx="1275" cy="225" r="6" fill="Blue" stroke="black" stroke-width="3" /> </g>
<g><rect x="1300" y="200" width="50" height="50" fill="Green" stroke="pink"/><circle cx="1325" cy="225" r="6" fill="Blue" stroke="black" stroke-width="3" /> </g>
<g><rect x="1350" y="200" width="50" height="50" fill="Green" stroke="pink"/><circle cx="1375" cy="225" r="6" fill="Blue" stroke="black" stroke-width="3" /> </g>
<rect x="0" y="250" width="50" height="50" fill="Green" stroke="pink"/>
<rect x="50" y="250" width="50" height="50" fill="Green" stroke="pink"/>
<rect x="100" y="250" width="50" height="50" fill="Green" stroke="pink"/>
<rect x="150" y="250" width="50" height="50" fill="Green" stroke="pink"/>
<rect x="200" y="250" width="50" height="50" fill="Green" stroke="pink"/>
<rect x="250" y="250" width="50" height="50" fill="Green" stroke="pink"/>
<rect x="300" y="250" width="50" height="50" fill="Green" stroke="pink"/>
<rect x="350" y="250" width="50" height="50" fill="Green" stroke="pink"/>
<rect x="400" y="250" width="50" height="50" fill="Green" stroke="pink"/>
<rect x="450" y="250" width="50" height="50" fill="Green" stroke="pink"/>
<rect x="500" y="250" width="50" height="50" fill="Green" stroke="pink"/>
<rect x="550" y="250" width="50" height="50" fill="Green" stroke="pink"/>
<rect x="600" y="250" width="50" height="50" fill="Brown" stroke="pink"/>
<rect x="650" y="250" width="50" height="50" fill="Brown" stroke="pink"/>
<rect x="700" y="250" width="50" height="50" fill="Brown" stroke="pink"/>
<g><rect x="750" y="250" width="50" height="50" fill="Brown" stroke="pink"/><circle cx="775" cy="275" r="6" fill="Yellow" stroke="black" stroke-width="3" /> </g>
<g><rect x="800" y="250" width="50" height="50" fill="Green" stroke="pink"/><circle cx="825" cy="275" r="6" fill="Yellow" stroke="black" stroke-width="3" /> </g>
<g><rect x="850" y="250" width="50" height="50" fill="Green" stroke="pink"/><circle cx="875" cy="275" r="6" fill="Yellow" stroke="black" stroke-width="3" /> </g>
<g><rect x="900" y="250" width="50" height="50" fill="Green" stroke="pink"/><circle cx="925" cy="275" r="6" fill="Yellow" stroke="black" stroke-width="3" /> </g>
<g><rect x="950" y="250" width="50" height="50" fill="Green" stroke="pink"/><circle cx="975" cy="275" r="6" fill="Yellow" stroke="black" stroke-width="3" /> </g>
<g><rect x="1000" y="250" width="50" height="50" fill="Green" stroke="pink"/><circle cx="1025" cy="275" r="6" fill="Yellow" stroke="black" stroke-width="3" /> </g>
<g><rect x="1050" y="250" width="50" height="50" fill="Green" stroke="pink"/><circle cx="1075" cy="275" r="6" fill="Yellow" stroke="black" stroke-width="3" /> </g>
<g><rect x="1100" y="250" width="50" height="50" fill="Green" stroke="pink"/><circle cx="1125" cy="275" r="6" fill="Yellow" stroke="black" stroke-width="3" /> </g>
<g><rect x="1150" y="250" width="50" height="50" fill="Green" stroke="pink"/><circle cx="1175" cy="275" r="6" fill="Yellow" stroke="black" stroke-width="3" /> </g>
<g><rect x="1200" y="250" width="50" height="50" fill="Green" stroke="pink"/><circle cx="1225" cy="275" r="6" fill="Yellow" stroke="black" stroke-width="3" /> </g>
<g><rect x="1250" y="250" width="50" height="50" fill="Green" stroke="pink"/><circle cx="1275" cy="275" r="6" fill="Yellow" stroke="black" stroke-width="3" /> </g>
<g><rect x="1300" y="250" width="50" height="50" fill="Green" stroke="pink"/><circle cx="1325" cy="275" r="6" fill="Yellow" stroke="black" stroke-width="3" /> </g>
<g><rect x="1350" y="250" width="50" height="50" fill="Green" stroke="pink"/><circle cx="1375" cy="275" r="6" fill="Blue" stroke="black" stroke-width="3" /> </g>
<rect x="0" y="300" width="50" height="50" fill="Green" stroke="pink"/>
<rect x="50" y="300" width="50" height="50" fill="Green" stroke="pink"/>
<rect x="100" y="300" width="50" height="50" fill="Green" stroke="pink"/>
<rect x="150" y="300" width="50" height="50" fill="Green" stroke="pink"/>
<rect x="200" y="300" width="50" height="50" fill="Green" stroke="pink"/>
<rect x="250" y="300" width="50" height="50" fill="Green" stroke="pink"/>
<rect x="300" y="300" width="50" height="50" fill="Green" stroke="pink"/>
<rect x="350" y="300" width="50" height="50" fill="Green" stroke="pink"/>
<rect x="400" y="300" width="50" height="50" fill="Green" stroke="pink"/>
<rect x="450" y="300" width="50" height="50" fill="Green" stroke="pink"/>
<rect x="500" y="300" width="50" height="50" fill="Green" stroke="pink"/>
<rect x="550" y="300" width="50" height="50" fill="Green" stroke="pink"/>
<rect x="600" y="300" width="50" height="50" fill="Brown" stroke="pink"/>
<rect x="650" y="300" width="50" height="50" fill="Brown" stroke="pink"/>
<rect x="700" y="300" width="50" height="50" fill="Brown" stroke="pink"/>
<g><rect x="750" y="300" width="50" height="50" fill="Brown" stroke="pink"/><circle cx="775" cy="325" r="6" fill="Yellow" stroke="black" stroke-width="3" /> </g>
<g><rect x="800" y="300" width="50" height="50" fill="Green" stroke="pink"/><circle cx="825" cy="325" r="6" fill="Yellow" stroke="black" stroke-width="3" /> </g>
<g><rect x="850" y="300" width="50" height="50" fill="Green" stroke="pink"/><circle cx="875" cy="325" r="6" fill="Yellow" stroke="black" stroke-width="3" /> </g>
<g><rect x="900" y="300" width="50" height="50" fill="Green" stroke="pink"/><circle cx="925" cy="325" r="6" fill="Yellow" stroke="black" stroke-width="3" /> </g>
<g><rect x="950" y="300" width="50" height="50" fill="Green" stroke="pink"/><circle cx="975" cy="325" r="6" fill="Yellow" stroke="black" stroke-width="3" /> </g>
<g><rect x="1000" y="300" width="50" height="50" fill="Green" stroke="pink"/><circle cx="1025" cy="325" r="6" fill="Yellow" stroke="black" stroke-width="3" /> </g>
<g><rect x="1050" y="300" width="50" height="50" fill="Green" stroke="pink"/><circle cx="1075" cy="325" r="6" fill="Yellow" stroke="black" stroke-width="3" /> </g>
<g><rect x="1100" y="300" width="50" height="50" fill="Green" stroke="pink"/><circle cx="1125" cy="325" r="6" fill="Yellow" stroke="black" stroke-width="3" /> </g>
<g><rect x="1150" y="300" width="50" height="50" fill="Green" stroke="pink"/><circle cx="1175" cy="325" r="6" fill="Yellow" stroke="black" stroke-width="3" /> </g>
<g><rect x="1200" y="300" width="50" height="50" fill="Green" stroke="pink"/><circle cx="1225" cy="325" r="6" fill="Yellow" stroke="black" stroke-width="3" /> </g>
<g><rect x="1250" y="300" width="50" height="50" fill="Green" stroke="pink"/><circle cx="1275" cy="325" r="6" fill="Yellow" stroke="black" stroke-width="3" /> </g>
<g><rect x="1300" y="300" width="50" height="50" fill="Green" stroke="pink"/><circle cx="1325" cy="325" r="6" fill="Yellow" stroke="black" stroke-width="3" /> </g>
<g><rect x="1350" y="300" width="50" height="50" fill="Red" stroke="pink"/><circle cx="1375" cy="325" r="6" fill="Blue" stroke="black" stroke-width="3" /> </g>
</svg>
